<svg width="60" height="56" viewBox="0 0 60 56" fill="none" xmlns="http://www.w3.org/2000/svg">
<path d="M4.47977 45.6926H0.704601V55.8634H15.3523V33.093L4.47977 22.315V3.79507H11.5771V23.833L22.7516 34.9146V55.8634H37.3992V33.093L26.3757 22.315V3.79507H33.7751V23.833L44.6476 34.9146V55.8634H59.4462V33.093L48.5737 22.315V3.79507H55.671V10.3226H59.4462V0H44.6476V23.833L55.671 34.9146V52.0683H48.5737V33.093L37.3992 22.315V0H22.7516V23.833L33.7751 34.9146V52.0683H26.3757V33.093L15.3523 22.315V0H0.402588V23.833L11.5771 34.9146V52.0683H4.47977V45.6926Z" fill="white"/>
</svg>
